<svg width="56" height="58" viewBox="0 0 56 58" fill="none" xmlns="http://www.w3.org/2000/svg">
<path fill-rule="evenodd" clip-rule="evenodd" d="M27.3516 17.7482L32.6604 19.0627C33.316 19.2251 33.9973 19.3902 34.6966 19.5597C38.3316 20.4407 42.45 21.4388 45.9429 22.7689C48.0367 23.5661 50.0356 24.5282 51.641 25.7422C53.2499 26.9589 54.6087 28.5416 55.123 30.5988C55.7897 33.2656 55.4251 36.1119 54.5435 38.7932C53.6575 41.4884 52.2042 44.1581 50.5047 46.5656C48.8024 48.9772 46.8128 51.183 44.8027 52.9418C42.8212 54.6756 40.6957 56.0842 38.7064 56.7473C37.1367 57.2705 34.9599 57.5399 32.6322 57.678C30.2551 57.8191 27.5371 57.8317 24.7878 57.7684C19.2877 57.6417 13.5477 57.2083 9.93147 56.8467L9.67961 52.6187C12.8515 51.9138 17.9425 50.6411 22.8649 49.1238C27.8768 47.5789 32.4143 45.8679 34.6935 44.3484C37.4829 42.4888 39.9258 39.112 41.1423 36.1924C41.6708 34.924 41.8805 33.947 41.8987 33.3424C41.7535 33.3826 41.5718 33.4419 41.351 33.5279C40.8277 33.7317 40.2273 34.0285 39.5949 34.3807C38.4305 35.0292 37.3056 35.7808 36.5323 36.2974C36.4636 36.3433 36.3976 36.3874 36.3346 36.4294L33.5 33.5279C33.7277 33.263 34.3913 33.3246 34.5 33.2467C34.5055 33.2427 34.9956 33.0032 35 33C35.1747 32.8742 36.4792 33.2837 36.6947 33.1402C36.9097 32.9971 35.7912 32.6371 36 32.5C36.2645 32.3264 35.9393 31.4967 36.247 31.2905C36.403 31.1861 36.5529 31.0845 36.6947 30.9869C36.2491 30.3774 38.6389 29.6757 38 28.8307V27.206C36.5136 25.2403 33.3077 20.3514 29.5 20.3514L27.3516 17.7482Z" fill="#79D45B"/>
<path fill-rule="evenodd" clip-rule="evenodd" d="M21.7669 37.756L22.145 35.6447L23.8932 34.4021L26.9351 38.6814L21.7669 37.756ZM13.5675 24.4595C13.5863 23.8548 13.7961 22.8788 14.3238 21.6124C15.5403 18.6928 17.9832 15.316 20.7726 13.4564C23.0518 11.937 27.5894 10.2259 32.6013 8.68103C37.5237 7.16374 42.6146 5.89096 45.7865 5.18609L45.5347 0.958081C41.9185 0.596459 36.1785 0.163086 30.6783 0.0364376C27.9291 -0.0268675 25.211 -0.014283 22.834 0.126769C20.5063 0.264891 18.3294 0.534281 16.7597 1.0575C14.7704 1.7206 12.6449 3.1292 10.6634 4.86299C8.65336 6.62183 6.6637 8.8276 4.9614 11.2392C3.26196 13.6467 1.80869 16.3164 0.922603 19.0116C0.0410761 21.6929 -0.323579 24.5392 0.343131 27.206C0.927832 29.5448 3.05669 31.1993 5.03195 32.3401C7.13851 33.5568 9.72379 34.5538 12.1601 35.3378C14.615 36.1278 17.0115 36.7307 18.7868 37.1352C19.6768 37.338 20.4159 37.4921 20.935 37.596C21.1946 37.648 21.3995 37.6874 21.541 37.7141C21.6117 37.7275 21.6666 37.7377 21.7046 37.7447L21.7489 37.7528L21.7669 37.756C21.7669 37.756 21.7669 37.756 22.145 35.6447L23.8932 34.4021L23.8922 34.4007L23.5 34.5C23.3324 34.2632 22.2877 34.409 22 34C21.4243 33.1816 19.4578 32.4012 18.6924 31.2905C17.9247 30.1765 16.7581 29.0724 18 27.5C17.9146 27.3686 18.5771 26.6726 18.5038 26.5574C18.5638 26.4921 18.6268 26.4245 18.6924 26.3549C19.4845 25.7039 20.1884 24.9856 20.6141 24.3374L17.1946 21.762C17.2003 21.7555 17.1999 21.7558 17.1907 21.7655C17.1766 21.7803 17.142 21.8165 17.0765 21.8829C16.9894 21.9712 16.8805 22.0799 16.7488 22.2113L16.7216 22.2384C16.4554 22.5041 16.117 22.8422 15.7812 23.1916C15.609 23.3266 15.4226 23.464 15.2239 23.5996C14.5375 24.0681 13.9616 24.337 13.5675 24.4595Z" fill="#79D45B"/>
<path fill-rule="evenodd" clip-rule="evenodd" d="M27.8212 21.66C21.5807 21.66 18.3212 25.4474 18.3212 28.16C18.3212 30.8725 21.5807 34.66 27.8212 34.66C34.0617 34.66 37.3212 30.8725 37.3212 28.16C37.3212 25.4474 34.0617 21.66 27.8212 21.66ZM27.8212 17.66C20.3654 17.66 14.3212 22.361 14.3212 28.16C14.3212 33.9589 20.3654 38.66 27.8212 38.66C35.2771 38.66 41.3212 33.9589 41.3212 28.16C41.3212 22.361 35.2771 17.66 27.8212 17.66Z" fill="#79D45B"/>
</svg>
